#N canvas 1704 320 1280 981 12;
#X floatatom 232 414 5 0 0 0 - - -;
#X obj 119 364 % 12;
#X obj 104 503 +;
#X floatatom 102 530 5 0 0 0 nota - nota;
#X msg 138 459 0;
#X obj 53 565 mtof;
#X obj 53 588 osc~;
#X obj 100 620 *~;
#X floatatom 83 258 5 0 0 0 - - -;
#X floatatom 87 332 5 0 0 0 - - -;
#X obj 84 43 metro 1 120 permin, f 19;
#X msg 84 21 tempo \$1 permin;
#X floatatom 83 -41 5 0 0 0 - beatmelo -;
#X obj 30 -36 tgl 15 0 empty prender empty 17 7 0 10 -262144 -1 -1
0 1;
#X obj 120 390 select 0 2 4 7 9;
#X floatatom 84 140 5 0 0 0 - - -;
#X floatatom 195 493 5 0 0 0 - - -;
#X obj 187 460 expr if($f1 == 11 \, -2 \, if($f1 == 6 \, -2 \, -1))
;
#X obj 363 70 int;
#X obj 415 70 + 1;
#X floatatom 363 101 5 0 0 0 - - -;
#X floatatom 364 151 5 0 0 0 - - -;
#X msg 362 3 tempo \$1 permin;
#X obj 326 65 bng 15 250 50 0 empty empty empty 17 7 0 10 -262144 -1
-1;
#X floatatom 85 304 5 0 0 0 - - -;
#X obj 80 -67 bng 15 250 50 0 empty empty empty 17 7 0 10 -262144 -1
-1;
#X obj 363 39 metro 1 120 permin, f 19;
#X obj 85 93 bng 15 250 50 0 empty empty empty 17 7 0 10 -262144 -1
-1;
#X obj 288 136 bng 15 250 50 0 empty empty empty 17 7 0 10 -262144
-1 -1;
#X obj 253 83 moses 1;
#X obj 303 235 moses 1;
#X floatatom 312 264 5 0 0 0 - - -;
#X msg 168 132 seed \$1;
#X obj 165 89 random 1000;
#X floatatom 168 109 5 0 0 0 - - -;
#X obj 162 70 bng 15 250 50 0 empty empty empty 17 7 0 10 -262144 -1
-1;
#X floatatom 423 171 5 0 0 0 - - -;
#X obj 427 202 == 0;
#X obj 455 293 bng 15 250 50 0 empty empty empty 17 7 0 10 -262144
-1 -1;
#X obj 428 229 moses 1;
#X msg 413 102 0;
#X obj 366 211 == 4;
#X obj 422 138 % 4;
#N canvas 1912 -8 1280 981 sintetizador_sustractivo 0;
#X obj 573 98 cnv 15 350 320 empty empty ENVOLVENTE 20 12 0 14 -261234
-66577 0;
#X obj 39 96 cnv 15 170 320 empty empty OSCILADOR 20 12 0 14 -204800
-66577 0;
#X obj 216 97 cnv 15 350 320 empty empty FILTRO 20 12 0 14 -203904
-66577 0;
#X obj 60 155 hsl 128 15 0 127 0 0 empty empty PITCH -2 -8 0 10 -262144
-1 -1 0 1;
#X floatatom 57 175 5 0 0 0 - nota -;
#X obj 57 194 mtof;
#X floatatom 57 216 5 0 0 0 - - -;
#X obj 59 300 pack f 10;
#X obj 59 322 line~;
#X obj 59 344 phasor~;
#X obj 59 366 *~ 2;
#X obj 59 388 -~ 1;
#X floatatom 251 179 5 0 0 0 - - -;
#X obj 251 198 pack f 20;
#X obj 251 220 line~;
#X obj 251 242 +~;
#X obj 251 264 mtof~;
#X obj 251 286 clip~ 0 19000;
#X floatatom 401 178 5 0 0 0 - - -;
#X obj 401 197 pack f 20;
#X obj 401 219 line~;
#X obj 401 241 *~;
#X floatatom 405 300 5 0 0 0 - - -;
#X obj 405 331 pack f 20;
#X obj 405 353 line~;
#X obj 240 369 bob~;
#X floatatom 626 188 5 0 0 0 - - -;
#X obj 600 284 vline~;
#X obj 600 306 pow~ 2;
#X obj 600 154 bng 15 250 50 0 empty nota1 empty 17 7 0 10 -262144
-1 -1;
#X obj 582 331 *~;
#X obj 57 53 inlet;
#X obj 600 54 inlet;
#X obj 611 469 outlet~;
#X floatatom 682 184 5 0 0 0 - - -;
#X obj 600 224 pack b f f f;
#X msg 600 252 1 \$2 \, 0 \$3 \$4;
#X obj 57 241 moses 10;
#X floatatom 135 266 5 0 0 0 - - nota1;
#X msg 781 57 5000;
#X msg 722 53 75;
#X msg 679 51 65;
#X msg 406 51 5;
#X msg 235 57 56;
#X msg 530 47 2;
#X obj 373 13 loadbang;
#X connect 4 0 5 0;
#X connect 5 0 6 0;
#X connect 6 0 37 0;
#X connect 7 0 8 0;
#X connect 8 0 9 0;
#X connect 9 0 10 0;
#X connect 10 0 11 0;
#X connect 11 0 25 0;
#X connect 12 0 13 0;
#X connect 13 0 14 0;
#X connect 14 0 15 0;
#X connect 15 0 16 0;
#X connect 16 0 17 0;
#X connect 17 0 25 1;
#X connect 18 0 19 0;
#X connect 19 0 20 0;
#X connect 20 0 21 0;
#X connect 21 0 15 1;
#X connect 22 0 23 0;
#X connect 23 0 24 0;
#X connect 24 0 25 2;
#X connect 25 0 30 0;
#X connect 26 0 35 1;
#X connect 27 0 28 0;
#X connect 28 0 30 1;
#X connect 28 0 21 1;
#X connect 29 0 35 0;
#X connect 30 0 33 0;
#X connect 31 0 3 0;
#X connect 32 0 29 0;
#X connect 34 0 35 3;
#X connect 35 0 36 0;
#X connect 36 0 27 0;
#X connect 37 1 7 0;
#X connect 37 1 38 0;
#X connect 39 0 35 3;
#X connect 40 0 34 0;
#X connect 41 0 26 0;
#X connect 42 0 18 0;
#X connect 43 0 12 0;
#X connect 44 0 22 0;
#X connect 45 0 43 0;
#X connect 45 0 42 0;
#X connect 45 0 44 0;
#X connect 45 0 41 0;
#X connect 45 0 40 0;
#X connect 45 0 39 0;
#X restore 99 569 pd sintetizador_sustractivo;
#X obj 84 117 random 75;
#X obj 362 -28 * 0.5;
#X obj 146 657 outlet~;
#X obj 84 233 expr if($f1 < 48 \, 0 \, $f1);
#X obj 84 283 expr if($f1 > 52 \, $f1 \, 0);
#X obj 457 589 expr if($f1 == 11 \, 48 \, $f1);
#X obj 83 168 expr if($f1 < 10 \, 48 \, $f1);
#X floatatom 85 199 5 0 0 0 - - -;
#X obj 363 126 % 16;
#X obj 81 -7 * 2;
#X obj 625 -51 metro 1000;
#X obj 628 60 moses 1;
#X obj 626 -23 int;
#X obj 678 -23 + 1;
#X floatatom 627 8 5 0 0 0 - - -;
#X msg 742 1 0;
#X obj 323 535 line;
#X msg 311 491 0;
#X obj 714 131 bng 15 250 50 0 empty empty empty 17 7 0 10 -262144
-1 -1;
#X floatatom 361 570 5 0 0 0 - - -;
#X msg 535 487 0 3000;
#X obj 627 32 expr if($f1 == 6 \, 1 \, 0);
#X obj 810 65 moses 1;
#X obj 1006 49 moses 1;
#X obj 811 39 expr if($f1 == 30 \, 1 \, 0);
#X obj 1007 20 expr if($f1 == 60 \, 1 \, 0);
#X msg 712 212 0.1 6000;
#X obj 937 209 moses 1;
#X obj 938 180 expr if($f1 == 80 \, 1 \, 0);
#X msg 939 255 0 10000;
#X floatatom 1005 249 5 0 0 0 - - apagar;
#X floatatom 37 37 5 0 0 0 - - -;
#X obj 760 -46 bng 15 250 50 0 empty empty empty 17 7 0 10 -262144
-1 -1;
#X connect 0 0 17 0;
#X connect 1 0 14 0;
#X connect 2 0 3 0;
#X connect 4 0 2 1;
#X connect 5 0 6 0;
#X connect 7 0 46 0;
#X connect 8 0 48 0;
#X connect 9 0 1 0;
#X connect 9 0 2 0;
#X connect 10 0 27 0;
#X connect 11 0 10 0;
#X connect 12 0 45 0;
#X connect 12 0 53 0;
#X connect 13 0 10 0;
#X connect 13 0 26 0;
#X connect 13 0 35 0;
#X connect 13 0 40 0;
#X connect 13 0 54 0;
#X connect 13 0 59 0;
#X connect 13 0 61 0;
#X connect 14 0 4 0;
#X connect 14 1 4 0;
#X connect 14 2 4 0;
#X connect 14 3 4 0;
#X connect 14 4 4 0;
#X connect 14 5 0 0;
#X connect 15 0 50 0;
#X connect 16 0 2 1;
#X connect 17 0 16 0;
#X connect 18 0 19 0;
#X connect 18 0 20 0;
#X connect 19 0 18 1;
#X connect 20 0 42 0;
#X connect 20 0 52 0;
#X connect 21 0 29 0;
#X connect 22 0 26 0;
#X connect 24 0 9 0;
#X connect 26 0 18 0;
#X connect 26 0 23 0;
#X connect 27 0 44 0;
#X connect 28 0 34 0;
#X connect 29 0 28 0;
#X connect 30 1 31 0;
#X connect 32 0 44 0;
#X connect 33 0 34 0;
#X connect 34 0 32 0;
#X connect 35 0 33 0;
#X connect 36 0 37 0;
#X connect 36 0 41 0;
#X connect 37 0 39 0;
#X connect 39 1 38 0;
#X connect 40 0 18 0;
#X connect 41 0 30 0;
#X connect 42 0 36 0;
#X connect 43 0 7 0;
#X connect 44 0 15 0;
#X connect 45 0 22 0;
#X connect 47 0 8 0;
#X connect 48 0 24 0;
#X connect 50 0 51 0;
#X connect 51 0 47 0;
#X connect 52 0 21 0;
#X connect 53 0 11 0;
#X connect 54 0 56 0;
#X connect 54 0 76 0;
#X connect 55 1 62 0;
#X connect 56 0 57 0;
#X connect 56 0 58 0;
#X connect 57 0 56 1;
#X connect 58 0 65 0;
#X connect 58 0 68 0;
#X connect 58 0 69 0;
#X connect 58 0 72 0;
#X connect 59 0 56 0;
#X connect 60 0 7 1;
#X connect 60 0 63 0;
#X connect 61 0 60 0;
#X connect 62 0 70 0;
#X connect 64 0 60 0;
#X connect 65 0 55 0;
#X connect 66 1 64 0;
#X connect 67 1 70 0;
#X connect 68 0 66 0;
#X connect 69 0 67 0;
#X connect 70 0 60 0;
#X connect 71 1 73 0;
#X connect 71 1 74 0;
#X connect 72 0 71 0;
#X connect 73 0 60 0;
