#N canvas 1912 -8 1280 981 12;
#X obj 0 0 cnv 15 10000 6000 empty empty empty 20 12 0 14 -133312 -66577
0;
#X floatatom 929 220 5 0 0 0 - #0_f1 -;
#X obj 929 257 osc~;
#X obj 987 196 bng 15 250 50 0 empty bang empty 17 7 0 10 -262144 -1
-1;
#X floatatom 1018 201 5 0 0 0 - d1 -;
#X obj 990 268 f;
#X obj 987 380 vline~;
#X obj 988 410 pow~ 4;
#X obj 930 435 *~;
#X obj 930 490 *~;
#X floatatom 983 462 5 0 0 0 - a1 -;
#X floatatom 1122 213 5 0 0 0 - #0_f2 -;
#X obj 1122 253 osc~;
#X obj 1175 221 bng 15 250 50 0 empty bang empty 17 7 0 10 -262144
-1 -1;
#X floatatom 1213 220 5 0 0 0 - d1 -;
#X obj 1179 277 f;
#X obj 1184 355 vline~;
#X obj 1184 379 pow~ 4;
#X obj 1123 431 *~;
#X obj 1123 486 *~;
#X floatatom 1176 458 5 0 0 0 - a2 -;
#X floatatom 1314 219 5 0 0 0 - #0_f3 -;
#X obj 1314 256 osc~;
#X obj 1369 218 bng 15 250 50 0 empty bang empty 17 7 0 10 -262144
-1 -1;
#X floatatom 1407 217 5 0 0 0 - d1 -;
#X obj 1374 283 f;
#X obj 1376 358 vline~;
#X obj 1376 382 pow~ 4;
#X obj 1315 434 *~;
#X obj 1315 489 *~;
#X floatatom 1368 461 5 0 0 0 - a3 -;
#X floatatom 1510 216 5 0 0 0 - #0_f4 -;
#X obj 1510 253 osc~;
#X obj 1564 217 bng 15 250 50 0 empty bang empty 17 7 0 10 -262144
-1 -1;
#X floatatom 1602 216 5 0 0 0 - d1 -;
#X obj 1570 277 f;
#X obj 1572 355 vline~;
#X obj 1572 379 pow~ 4;
#X obj 1511 431 *~;
#X obj 1511 486 *~;
#X floatatom 1564 458 5 0 0 0 - a4 -;
#X floatatom 1700 213 5 0 0 0 - #0_f5 -;
#X obj 1700 250 osc~;
#X obj 1756 213 bng 15 250 50 0 empty bang empty 17 7 0 10 -262144
-1 -1;
#X floatatom 1794 212 5 0 0 0 - d1 -;
#X obj 1767 279 f;
#X obj 1762 352 vline~;
#X obj 1762 376 pow~ 4;
#X obj 1701 428 *~;
#X obj 1701 483 *~;
#X floatatom 1754 455 5 0 0 0 - a5 -;
#X floatatom 1901 212 5 0 0 0 - #0_f6 -;
#X obj 1901 249 osc~;
#X obj 1952 208 bng 15 250 50 0 empty bang empty 17 7 0 10 -262144
-1 -1;
#X floatatom 1990 207 5 0 0 0 - d1 -;
#X obj 1966 272 f;
#X obj 1963 351 vline~;
#X obj 1963 375 pow~ 4;
#X obj 1902 427 *~;
#X obj 1902 482 *~;
#X floatatom 1955 454 5 0 0 0 - a6 -;
#X floatatom 2087 213 5 0 0 0 - #0_f7 -;
#X obj 2087 250 osc~;
#X obj 2142 207 bng 15 250 50 0 empty bang empty 17 7 0 10 -262144
-1 -1;
#X floatatom 2180 206 5 0 0 0 - d1 -;
#X obj 2156 274 f;
#X obj 2149 352 vline~;
#X obj 2149 376 pow~ 4;
#X obj 2088 428 *~;
#X obj 2088 483 *~;
#X floatatom 2141 455 5 0 0 0 - a7 -;
#X obj 1408 645 *~;
#X obj 1527 584 r env.clicks;
#X obj 1527 608 vline~;
#X obj 1493 690 threshold~ 1;
#X obj 1500 728 bng 15 250 50 0 empty empty empty 17 7 0 10 -258113
-1 -1;
#N canvas 676 0 681 668 prebang 0;
#X obj 2 1 cnv 15 10000 6000 empty empty empty 20 12 0 14 -232576 -66577
0;
#X obj 120 50 r prebang;
#X msg 120 93 0 10 \, 1 10 10;
#X obj 120 132 s env.clicks;
#X obj 248 93 delay 10;
#X obj 256 134 bng 30 250 50 0 bang empty empty 17 7 0 10 -260097 -1
-1;
#X connect 1 0 2 0;
#X connect 1 0 4 0;
#X connect 2 0 3 0;
#X connect 4 0 5 0;
#X restore 986 671 pd prebang;
#N canvas 676 0 681 668 frecuencia 0;
#X obj 0 0 cnv 15 10000 6000 empty empty empty 20 12 0 14 -262113 -66577
0;
#X obj 223 76 r bang;
#X obj 223 224 random;
#X floatatom 167 119 5 0 0 0 - #0_f.fund -;
#X floatatom 278 111 5 0 0 0 - e.arm -;
#X floatatom 278 186 5 0 0 0 - - -;
#X obj 278 143 * 1;
#X obj 167 156 * 1;
#X obj 316 226 / 2;
#X obj 270 275 -;
#X obj 215 324 t b f;
#X floatatom 289 324 5 0 0 0 - - -;
#X obj 204 365 +;
#X floatatom 204 389 5 0 0 0 - - #0_f1;
#X obj 418 72 r bang;
#X obj 418 220 random;
#X floatatom 362 115 5 0 0 0 - #0_f.fund -;
#X floatatom 473 107 5 0 0 0 - e.arm -;
#X floatatom 473 182 5 0 0 0 - - -;
#X obj 511 222 / 2;
#X obj 465 271 -;
#X obj 410 320 t b f;
#X floatatom 484 320 5 0 0 0 - - -;
#X obj 399 361 +;
#X floatatom 399 385 5 0 0 0 - - #0_f2;
#X obj 362 152 * 2;
#X obj 473 138 * 2;
#X obj 601 63 r bang;
#X obj 601 211 random;
#X floatatom 545 106 5 0 0 0 - #0_f.fund -;
#X floatatom 656 98 5 0 0 0 - e.arm -;
#X floatatom 656 173 5 0 0 0 - - -;
#X obj 694 213 / 2;
#X obj 648 262 -;
#X obj 593 311 t b f;
#X floatatom 667 311 5 0 0 0 - - -;
#X obj 582 352 +;
#X floatatom 582 376 5 0 0 0 - - #0_f3;
#X obj 545 143 * 3;
#X obj 656 129 * 3;
#X obj 783 55 r bang;
#X obj 783 203 random;
#X floatatom 727 98 5 0 0 0 - #0_f.fund -;
#X floatatom 838 90 5 0 0 0 - e.arm -;
#X floatatom 838 165 5 0 0 0 - - -;
#X obj 876 205 / 2;
#X obj 830 254 -;
#X obj 775 303 t b f;
#X floatatom 849 303 5 0 0 0 - - -;
#X obj 764 344 +;
#X floatatom 764 368 5 0 0 0 - - #0_f4;
#X obj 727 135 * 4;
#X obj 838 121 * 4;
#X obj 257 424 r bang;
#X obj 257 572 random;
#X floatatom 201 467 5 0 0 0 - #0_f.fund -;
#X floatatom 312 459 5 0 0 0 - e.arm -;
#X floatatom 312 534 5 0 0 0 - - -;
#X obj 350 574 / 2;
#X obj 304 623 -;
#X obj 249 672 t b f;
#X floatatom 323 672 5 0 0 0 - - -;
#X obj 238 713 +;
#X floatatom 238 737 5 0 0 0 - - #0_f5;
#X obj 201 504 * 5;
#X obj 312 490 * 5;
#X obj 454 413 r bang;
#X obj 454 561 random;
#X floatatom 398 456 5 0 0 0 - #0_f.fund -;
#X floatatom 509 448 5 0 0 0 - e.arm -;
#X floatatom 509 523 5 0 0 0 - - -;
#X obj 547 563 / 2;
#X obj 501 612 -;
#X obj 446 661 t b f;
#X floatatom 520 661 5 0 0 0 - - -;
#X obj 435 702 +;
#X floatatom 435 726 5 0 0 0 - - #0_f6;
#X obj 398 493 * 6;
#X obj 509 477 * 6;
#X obj 637 401 r bang;
#X obj 637 549 random;
#X floatatom 581 444 5 0 0 0 - #0_f.fund -;
#X floatatom 692 436 5 0 0 0 - e.arm -;
#X floatatom 692 511 5 0 0 0 - - -;
#X obj 730 551 / 2;
#X obj 684 600 -;
#X obj 629 649 t b f;
#X floatatom 703 649 5 0 0 0 - - -;
#X obj 618 690 +;
#X floatatom 618 714 5 0 0 0 - - #0_f7;
#X obj 581 481 * 7;
#X obj 692 465 * 7;
#X obj 817 393 r bang;
#X obj 817 541 random;
#X floatatom 761 436 5 0 0 0 - #0_f.fund -;
#X floatatom 872 428 5 0 0 0 - e.arm -;
#X floatatom 872 503 5 0 0 0 - - -;
#X obj 910 543 / 2;
#X obj 864 592 -;
#X obj 809 641 t b f;
#X floatatom 883 641 5 0 0 0 - - -;
#X obj 798 682 +;
#X floatatom 798 706 5 0 0 0 - - #0_f8;
#X obj 761 473 * 8;
#X obj 872 457 * 8;
#X connect 1 0 2 0;
#X connect 2 0 9 0;
#X connect 3 0 7 0;
#X connect 4 0 6 0;
#X connect 5 0 2 1;
#X connect 5 0 8 0;
#X connect 6 0 5 0;
#X connect 7 0 12 0;
#X connect 8 0 9 1;
#X connect 9 0 10 0;
#X connect 9 0 11 0;
#X connect 10 0 12 0;
#X connect 10 1 12 1;
#X connect 12 0 13 0;
#X connect 14 0 15 0;
#X connect 15 0 20 0;
#X connect 16 0 25 0;
#X connect 17 0 26 0;
#X connect 18 0 15 1;
#X connect 18 0 19 0;
#X connect 19 0 20 1;
#X connect 20 0 21 0;
#X connect 20 0 22 0;
#X connect 21 0 23 0;
#X connect 21 1 23 1;
#X connect 23 0 24 0;
#X connect 25 0 23 0;
#X connect 26 0 18 0;
#X connect 27 0 28 0;
#X connect 28 0 33 0;
#X connect 29 0 38 0;
#X connect 30 0 39 0;
#X connect 31 0 28 1;
#X connect 31 0 32 0;
#X connect 32 0 33 1;
#X connect 33 0 34 0;
#X connect 33 0 35 0;
#X connect 34 0 36 0;
#X connect 34 1 36 1;
#X connect 36 0 37 0;
#X connect 38 0 36 0;
#X connect 39 0 31 0;
#X connect 40 0 41 0;
#X connect 41 0 46 0;
#X connect 42 0 51 0;
#X connect 43 0 52 0;
#X connect 44 0 41 1;
#X connect 44 0 45 0;
#X connect 45 0 46 1;
#X connect 46 0 47 0;
#X connect 46 0 48 0;
#X connect 47 0 49 0;
#X connect 47 1 49 1;
#X connect 49 0 50 0;
#X connect 51 0 49 0;
#X connect 52 0 44 0;
#X connect 53 0 54 0;
#X connect 54 0 59 0;
#X connect 55 0 64 0;
#X connect 56 0 65 0;
#X connect 57 0 54 1;
#X connect 57 0 58 0;
#X connect 58 0 59 1;
#X connect 59 0 60 0;
#X connect 59 0 61 0;
#X connect 60 0 62 0;
#X connect 60 1 62 1;
#X connect 62 0 63 0;
#X connect 64 0 62 0;
#X connect 65 0 57 0;
#X connect 66 0 67 0;
#X connect 67 0 72 0;
#X connect 68 0 77 0;
#X connect 69 0 78 0;
#X connect 70 0 67 1;
#X connect 70 0 71 0;
#X connect 71 0 72 1;
#X connect 72 0 73 0;
#X connect 72 0 74 0;
#X connect 73 0 75 0;
#X connect 73 1 75 1;
#X connect 75 0 76 0;
#X connect 77 0 75 0;
#X connect 78 0 70 0;
#X connect 79 0 80 0;
#X connect 80 0 85 0;
#X connect 81 0 90 0;
#X connect 82 0 91 0;
#X connect 83 0 80 1;
#X connect 83 0 84 0;
#X connect 84 0 85 1;
#X connect 85 0 86 0;
#X connect 85 0 87 0;
#X connect 86 0 88 0;
#X connect 86 1 88 1;
#X connect 88 0 89 0;
#X connect 90 0 88 0;
#X connect 91 0 83 0;
#X connect 92 0 93 0;
#X connect 93 0 98 0;
#X connect 94 0 103 0;
#X connect 95 0 104 0;
#X connect 96 0 93 1;
#X connect 96 0 97 0;
#X connect 97 0 98 1;
#X connect 98 0 99 0;
#X connect 98 0 100 0;
#X connect 99 0 101 0;
#X connect 99 1 101 1;
#X connect 101 0 102 0;
#X connect 103 0 101 0;
#X connect 104 0 96 0;
#X restore 912 153 pd frecuencia de cada parcial;
#N canvas 526 0 831 668 amplitud 0;
#X obj -6 -4 cnv 15 10000 6000 empty empty empty 20 12 0 14 -261234
-66577 0;
#X obj 208 55 r bang;
#X obj 208 216 random;
#X floatatom 299 78 5 0 0 0 - e.amp -;
#X obj 268 112 * 1;
#X obj 324 114 / 2;
#X floatatom 259 168 5 0 0 0 - - -;
#X obj 242 260 -;
#X obj 242 284 / 1000;
#X obj 204 321 t b f;
#X floatatom 270 321 5 0 0 0 - - -;
#X obj 204 370 +;
#X obj 117 207 loadbang;
#X msg 117 246 1;
#X floatatom 204 394 5 0 0 0 - - -;
#X obj 181 443 t b f;
#X obj 162 491 *;
#X floatatom 159 528 5 0 0 0 - - a1;
#X floatatom 98 429 5 0 0 0 - a.fund -;
#X obj 439 66 r bang;
#X obj 439 227 random;
#X floatatom 530 89 5 0 0 0 - e.amp -;
#X obj 499 123 * 1;
#X obj 555 125 / 2;
#X floatatom 490 179 5 0 0 0 - - -;
#X obj 473 271 -;
#X obj 473 295 / 1000;
#X obj 435 332 t b f;
#X floatatom 501 332 5 0 0 0 - - -;
#X obj 435 381 +;
#X floatatom 435 405 5 0 0 0 - - -;
#X obj 412 454 t b f;
#X obj 393 502 *;
#X floatatom 390 539 5 0 0 0 - - a2;
#X floatatom 329 440 5 0 0 0 - a.fund -;
#X floatatom 361 239 5 0 0 0 - a.brillo -;
#X obj 361 262 pow 2;
#X obj 667 69 r bang;
#X obj 667 230 random;
#X floatatom 758 92 5 0 0 0 - e.amp -;
#X obj 727 126 * 1;
#X obj 783 128 / 2;
#X floatatom 718 182 5 0 0 0 - - -;
#X obj 701 274 -;
#X obj 701 298 / 1000;
#X obj 663 335 t b f;
#X floatatom 729 335 5 0 0 0 - - -;
#X obj 663 384 +;
#X floatatom 663 408 5 0 0 0 - - -;
#X obj 640 457 t b f;
#X obj 621 505 *;
#X floatatom 618 542 5 0 0 0 - - a3;
#X floatatom 557 443 5 0 0 0 - a.fund -;
#X floatatom 589 242 5 0 0 0 - a.brillo -;
#X obj 589 265 pow 3;
#X obj 869 69 r bang;
#X obj 869 230 random;
#X floatatom 960 92 5 0 0 0 - e.amp -;
#X obj 929 126 * 1;
#X obj 985 128 / 2;
#X floatatom 920 182 5 0 0 0 - - -;
#X obj 903 274 -;
#X obj 903 298 / 1000;
#X obj 865 335 t b f;
#X floatatom 931 335 5 0 0 0 - - -;
#X obj 865 384 +;
#X floatatom 865 408 5 0 0 0 - - -;
#X obj 842 457 t b f;
#X obj 823 505 *;
#X floatatom 820 542 5 0 0 0 - - a4;
#X floatatom 804 434 5 0 0 0 - a.fund -;
#X floatatom 813 245 5 0 0 0 - a.brillo -;
#X obj 813 268 pow 4;
#X obj 267 552 r bang;
#X obj 267 713 random;
#X floatatom 358 575 5 0 0 0 - e.amp -;
#X obj 327 609 * 1;
#X obj 383 611 / 2;
#X floatatom 318 665 5 0 0 0 - - -;
#X obj 301 757 -;
#X obj 301 781 / 1000;
#X obj 263 818 t b f;
#X floatatom 329 818 5 0 0 0 - - -;
#X obj 263 867 +;
#X floatatom 263 891 5 0 0 0 - - -;
#X obj 240 940 t b f;
#X obj 221 988 *;
#X floatatom 218 1025 5 0 0 0 - - a5;
#X floatatom 202 917 5 0 0 0 - a.fund -;
#X floatatom 211 728 5 0 0 0 - a.brillo -;
#X obj 211 751 pow 5;
#X obj 477 550 r bang;
#X obj 477 711 random;
#X floatatom 568 573 5 0 0 0 - e.amp -;
#X obj 537 607 * 1;
#X obj 593 609 / 2;
#X floatatom 528 663 5 0 0 0 - - -;
#X obj 511 755 -;
#X obj 511 779 / 1000;
#X obj 473 816 t b f;
#X floatatom 539 816 5 0 0 0 - - -;
#X obj 473 865 +;
#X floatatom 473 889 5 0 0 0 - - -;
#X obj 450 938 t b f;
#X obj 431 986 *;
#X floatatom 428 1023 5 0 0 0 - - a6;
#X floatatom 412 915 5 0 0 0 - a.fund -;
#X floatatom 421 726 5 0 0 0 - a.brillo -;
#X obj 421 749 pow 6;
#X obj 668 565 r bang;
#X obj 668 726 random;
#X floatatom 759 588 5 0 0 0 - e.amp -;
#X obj 728 622 * 1;
#X obj 784 624 / 2;
#X floatatom 719 678 5 0 0 0 - - -;
#X obj 702 770 -;
#X obj 702 794 / 1000;
#X obj 664 831 t b f;
#X floatatom 730 831 5 0 0 0 - - -;
#X obj 664 880 +;
#X floatatom 664 904 5 0 0 0 - - -;
#X obj 641 953 t b f;
#X obj 622 1001 *;
#X floatatom 619 1038 5 0 0 0 - - a7;
#X floatatom 603 930 5 0 0 0 - a.fund -;
#X floatatom 612 741 5 0 0 0 - a.brillo -;
#X obj 612 764 pow 7;
#X obj 868 563 r bang;
#X obj 868 724 random;
#X floatatom 959 586 5 0 0 0 - e.amp -;
#X obj 928 620 * 1;
#X obj 984 622 / 2;
#X floatatom 919 676 5 0 0 0 - - -;
#X obj 902 768 -;
#X obj 902 792 / 1000;
#X obj 864 829 t b f;
#X floatatom 930 829 5 0 0 0 - - -;
#X obj 864 878 +;
#X floatatom 864 902 5 0 0 0 - - -;
#X obj 841 951 t b f;
#X obj 822 999 *;
#X floatatom 819 1036 5 0 0 0 - - a8;
#X floatatom 803 928 5 0 0 0 - a.fund -;
#X floatatom 812 739 5 0 0 0 - a.brillo -;
#X obj 812 762 pow 8;
#X connect 1 0 2 0;
#X connect 2 0 7 0;
#X connect 3 0 4 0;
#X connect 3 0 5 0;
#X connect 4 0 6 0;
#X connect 5 0 7 1;
#X connect 6 0 2 1;
#X connect 7 0 8 0;
#X connect 8 0 9 0;
#X connect 8 0 10 0;
#X connect 9 0 11 0;
#X connect 9 1 11 1;
#X connect 11 0 14 0;
#X connect 12 0 13 0;
#X connect 13 0 11 0;
#X connect 14 0 15 0;
#X connect 15 0 16 0;
#X connect 15 1 16 1;
#X connect 16 0 17 0;
#X connect 18 0 16 0;
#X connect 19 0 20 0;
#X connect 20 0 25 0;
#X connect 21 0 22 0;
#X connect 21 0 23 0;
#X connect 22 0 24 0;
#X connect 23 0 25 1;
#X connect 24 0 20 1;
#X connect 25 0 26 0;
#X connect 26 0 27 0;
#X connect 26 0 28 0;
#X connect 27 0 29 0;
#X connect 27 1 29 1;
#X connect 29 0 30 0;
#X connect 30 0 31 0;
#X connect 31 0 32 0;
#X connect 31 1 32 1;
#X connect 32 0 33 0;
#X connect 34 0 32 0;
#X connect 35 0 36 0;
#X connect 36 0 29 0;
#X connect 37 0 38 0;
#X connect 38 0 43 0;
#X connect 39 0 40 0;
#X connect 39 0 41 0;
#X connect 40 0 42 0;
#X connect 41 0 43 1;
#X connect 42 0 38 1;
#X connect 43 0 44 0;
#X connect 44 0 45 0;
#X connect 44 0 46 0;
#X connect 45 0 47 0;
#X connect 45 1 47 1;
#X connect 47 0 48 0;
#X connect 48 0 49 0;
#X connect 49 0 50 0;
#X connect 49 1 50 1;
#X connect 50 0 51 0;
#X connect 52 0 50 0;
#X connect 53 0 54 0;
#X connect 54 0 47 0;
#X connect 55 0 56 0;
#X connect 56 0 61 0;
#X connect 57 0 58 0;
#X connect 57 0 59 0;
#X connect 58 0 60 0;
#X connect 59 0 61 1;
#X connect 60 0 56 1;
#X connect 61 0 62 0;
#X connect 62 0 63 0;
#X connect 62 0 64 0;
#X connect 63 0 65 0;
#X connect 63 1 65 1;
#X connect 65 0 66 0;
#X connect 66 0 67 0;
#X connect 67 0 68 0;
#X connect 67 1 68 1;
#X connect 68 0 69 0;
#X connect 70 0 68 0;
#X connect 71 0 72 0;
#X connect 72 0 65 0;
#X connect 73 0 74 0;
#X connect 74 0 79 0;
#X connect 75 0 76 0;
#X connect 75 0 77 0;
#X connect 76 0 78 0;
#X connect 77 0 79 1;
#X connect 78 0 74 1;
#X connect 79 0 80 0;
#X connect 80 0 81 0;
#X connect 80 0 82 0;
#X connect 81 0 83 0;
#X connect 81 1 83 1;
#X connect 83 0 84 0;
#X connect 84 0 85 0;
#X connect 85 0 86 0;
#X connect 85 1 86 1;
#X connect 86 0 87 0;
#X connect 88 0 86 0;
#X connect 89 0 90 0;
#X connect 90 0 83 0;
#X connect 91 0 92 0;
#X connect 92 0 97 0;
#X connect 93 0 94 0;
#X connect 93 0 95 0;
#X connect 94 0 96 0;
#X connect 95 0 97 1;
#X connect 96 0 92 1;
#X connect 97 0 98 0;
#X connect 98 0 99 0;
#X connect 98 0 100 0;
#X connect 99 0 101 0;
#X connect 99 1 101 1;
#X connect 101 0 102 0;
#X connect 102 0 103 0;
#X connect 103 0 104 0;
#X connect 103 1 104 1;
#X connect 104 0 105 0;
#X connect 106 0 104 0;
#X connect 107 0 108 0;
#X connect 108 0 101 0;
#X connect 109 0 110 0;
#X connect 110 0 115 0;
#X connect 111 0 112 0;
#X connect 111 0 113 0;
#X connect 112 0 114 0;
#X connect 113 0 115 1;
#X connect 114 0 110 1;
#X connect 115 0 116 0;
#X connect 116 0 117 0;
#X connect 116 0 118 0;
#X connect 117 0 119 0;
#X connect 117 1 119 1;
#X connect 119 0 120 0;
#X connect 120 0 121 0;
#X connect 121 0 122 0;
#X connect 121 1 122 1;
#X connect 122 0 123 0;
#X connect 124 0 122 0;
#X connect 125 0 126 0;
#X connect 126 0 119 0;
#X connect 127 0 128 0;
#X connect 128 0 133 0;
#X connect 129 0 130 0;
#X connect 129 0 131 0;
#X connect 130 0 132 0;
#X connect 131 0 133 1;
#X connect 132 0 128 1;
#X connect 133 0 134 0;
#X connect 134 0 135 0;
#X connect 134 0 136 0;
#X connect 135 0 137 0;
#X connect 135 1 137 1;
#X connect 137 0 138 0;
#X connect 138 0 139 0;
#X connect 139 0 140 0;
#X connect 139 1 140 1;
#X connect 140 0 141 0;
#X connect 142 0 140 0;
#X connect 143 0 144 0;
#X connect 144 0 137 0;
#X restore 1163 155 pd amplitud de cada parcial;
#X floatatom 719 219 5 0 0 0 - - #0_f.fund;
#X floatatom 720 246 5 0 0 0 - - e.arm;
#X floatatom 720 276 5 0 0.8 0 - - a.fund;
#X floatatom 720 306 5 0 0 0 - - d.fund;
#X floatatom 722 336 5 0 1 0 - - a.brillo;
#X floatatom 723 362 5 0 0 0 - - e.amp;
#X floatatom 723 389 5 0 1 0 - - s.brillo;
#X floatatom 723 415 5 0 0 0 - - e.sus;
#X text 559 221 Freq. fundamental(Hz);
#X text 566 249 Error de armonicidad;
#X text 573 276 Amplitud (de fund.);
#X text 510 307 Dur. de dec. (de fund.) (ms);
#X text 580 337 Amplitud de brillo;
#X text 587 364 Error de amplitud;
#X text 586 390 Sustain de brillo;
#X text 593 417 Error de sustain;
#X obj 716 161 bng 30 250 50 0 prebang empty empty 17 7 0 10 -260808
-1 -1;
#N canvas -8 -8 1920 1037 duracion 0;
#X obj 1 0 cnv 15 10000 6000 empty empty empty 20 12 0 14 -262130 -66577
0;
#X obj 208 55 r bang;
#X obj 208 216 random;
#X floatatom 299 78 5 0 0 0 - e.sus -;
#X obj 268 112 * 1;
#X obj 324 114 / 2;
#X floatatom 259 168 5 0 0 0 - - -;
#X obj 242 260 -;
#X obj 242 284 / 1000;
#X obj 204 321 t b f;
#X floatatom 270 321 5 0 0 0 - - -;
#X obj 204 370 +;
#X obj 117 207 loadbang;
#X msg 117 246 1;
#X floatatom 204 394 5 0 0 0 - - -;
#X obj 181 443 t b f;
#X obj 162 491 *;
#X floatatom 159 528 5 0 0 0 - - d1;
#X floatatom 98 429 5 0 0 0 - d.fund -;
#X obj 449 51 r bang;
#X obj 449 212 random;
#X floatatom 540 74 5 0 0 0 - e.sus -;
#X obj 509 108 * 1;
#X obj 565 110 / 2;
#X floatatom 500 164 5 0 0 0 - - -;
#X obj 483 256 -;
#X obj 483 280 / 1000;
#X obj 445 317 t b f;
#X floatatom 511 317 5 0 0 0 - - -;
#X obj 445 366 +;
#X floatatom 445 390 5 0 0 0 - - -;
#X obj 422 439 t b f;
#X obj 403 487 *;
#X floatatom 400 524 5 0 0 0 - - d2;
#X floatatom 339 425 5 0 0 0 - d.fund -;
#X floatatom 363 224 5 0 0 0 - s.brillo -;
#X obj 363 274 pow 2;
#X obj 707 56 r bang;
#X obj 707 217 random;
#X floatatom 798 79 5 0 0 0 - e.sus -;
#X obj 767 113 * 1;
#X obj 823 115 / 2;
#X floatatom 758 169 5 0 0 0 - - -;
#X obj 741 261 -;
#X obj 741 285 / 1000;
#X obj 703 322 t b f;
#X floatatom 769 322 5 0 0 0 - - -;
#X obj 703 371 +;
#X floatatom 703 395 5 0 0 0 - - -;
#X obj 680 444 t b f;
#X obj 661 492 *;
#X floatatom 658 529 5 0 0 0 - - d3;
#X floatatom 597 430 5 0 0 0 - d.fund -;
#X floatatom 621 229 5 0 0 0 - s.brillo -;
#X obj 621 279 pow 3;
#X obj 963 40 r bang;
#X obj 963 201 random;
#X floatatom 1054 63 5 0 0 0 - e.sus -;
#X obj 1023 97 * 1;
#X obj 1079 99 / 2;
#X floatatom 1014 153 5 0 0 0 - - -;
#X obj 997 245 -;
#X obj 997 269 / 1000;
#X obj 959 306 t b f;
#X floatatom 1025 306 5 0 0 0 - - -;
#X obj 959 355 +;
#X floatatom 959 379 5 0 0 0 - - -;
#X obj 936 428 t b f;
#X obj 917 476 *;
#X floatatom 914 513 5 0 0 0 - - d4;
#X floatatom 853 414 5 0 0 0 - d.fund -;
#X floatatom 877 213 5 0 0 0 - s.brillo -;
#X obj 877 263 pow 4;
#X obj 275 582 r bang;
#X obj 275 743 random;
#X floatatom 366 605 5 0 0 0 - e.sus -;
#X obj 335 639 * 1;
#X obj 391 641 / 2;
#X floatatom 326 695 5 0 0 0 - - -;
#X obj 309 787 -;
#X obj 309 811 / 1000;
#X obj 271 848 t b f;
#X floatatom 337 848 5 0 0 0 - - -;
#X obj 271 897 +;
#X floatatom 271 921 5 0 0 0 - - -;
#X obj 248 970 t b f;
#X obj 229 1018 *;
#X floatatom 226 1055 5 0 0 0 - - d5;
#X floatatom 165 956 5 0 0 0 - d.fund -;
#X floatatom 189 755 5 0 0 0 - s.brillo -;
#X obj 189 805 pow 5;
#X obj 535 576 r bang;
#X obj 535 737 random;
#X floatatom 626 599 5 0 0 0 - e.sus -;
#X obj 595 633 * 1;
#X obj 651 635 / 2;
#X floatatom 586 689 5 0 0 0 - - -;
#X obj 569 781 -;
#X obj 569 805 / 1000;
#X obj 531 842 t b f;
#X floatatom 597 842 5 0 0 0 - - -;
#X obj 531 891 +;
#X floatatom 531 915 5 0 0 0 - - -;
#X obj 508 964 t b f;
#X obj 489 1012 *;
#X floatatom 486 1049 5 0 0 0 - - d6;
#X floatatom 425 950 5 0 0 0 - d.fund -;
#X floatatom 449 749 5 0 0 0 - s.brillo -;
#X obj 449 799 pow 6;
#X obj 784 578 r bang;
#X obj 784 739 random;
#X floatatom 875 601 5 0 0 0 - e.sus -;
#X obj 844 635 * 1;
#X obj 900 637 / 2;
#X floatatom 835 691 5 0 0 0 - - -;
#X obj 818 783 -;
#X obj 818 807 / 1000;
#X obj 780 844 t b f;
#X floatatom 846 844 5 0 0 0 - - -;
#X obj 780 893 +;
#X floatatom 780 917 5 0 0 0 - - -;
#X obj 757 966 t b f;
#X obj 738 1014 *;
#X floatatom 735 1051 5 0 0 0 - - d7;
#X floatatom 674 952 5 0 0 0 - d.fund -;
#X floatatom 698 751 5 0 0 0 - s.brillo -;
#X obj 698 801 pow 7;
#X obj 1034 567 r bang;
#X obj 1034 728 random;
#X floatatom 1125 590 5 0 0 0 - e.sus -;
#X obj 1094 624 * 1;
#X obj 1150 626 / 2;
#X floatatom 1085 680 5 0 0 0 - - -;
#X obj 1068 772 -;
#X obj 1068 796 / 1000;
#X obj 1030 833 t b f;
#X floatatom 1096 833 5 0 0 0 - - -;
#X obj 1030 882 +;
#X floatatom 1030 906 5 0 0 0 - - -;
#X obj 1007 955 t b f;
#X obj 988 1003 *;
#X floatatom 985 1040 5 0 0 0 - - d8;
#X floatatom 924 941 5 0 0 0 - d.fund -;
#X floatatom 948 740 5 0 0 0 - s.brillo -;
#X obj 948 790 pow 8;
#X connect 1 0 2 0;
#X connect 2 0 7 0;
#X connect 3 0 4 0;
#X connect 3 0 5 0;
#X connect 4 0 6 0;
#X connect 5 0 7 1;
#X connect 6 0 2 1;
#X connect 7 0 8 0;
#X connect 8 0 9 0;
#X connect 8 0 10 0;
#X connect 9 0 11 0;
#X connect 9 1 11 1;
#X connect 11 0 14 0;
#X connect 12 0 13 0;
#X connect 13 0 11 0;
#X connect 14 0 15 0;
#X connect 15 0 16 0;
#X connect 15 1 16 1;
#X connect 16 0 17 0;
#X connect 18 0 16 0;
#X connect 19 0 20 0;
#X connect 20 0 25 0;
#X connect 21 0 22 0;
#X connect 21 0 23 0;
#X connect 22 0 24 0;
#X connect 23 0 25 1;
#X connect 24 0 20 1;
#X connect 25 0 26 0;
#X connect 26 0 27 0;
#X connect 26 0 28 0;
#X connect 27 0 29 0;
#X connect 27 1 29 1;
#X connect 29 0 30 0;
#X connect 30 0 31 0;
#X connect 31 0 32 0;
#X connect 31 1 32 1;
#X connect 32 0 33 0;
#X connect 34 0 32 0;
#X connect 35 0 36 0;
#X connect 36 0 27 0;
#X connect 37 0 38 0;
#X connect 38 0 43 0;
#X connect 39 0 40 0;
#X connect 39 0 41 0;
#X connect 40 0 42 0;
#X connect 41 0 43 1;
#X connect 42 0 38 1;
#X connect 43 0 44 0;
#X connect 44 0 45 0;
#X connect 44 0 46 0;
#X connect 45 0 47 0;
#X connect 45 1 47 1;
#X connect 47 0 48 0;
#X connect 48 0 49 0;
#X connect 49 0 50 0;
#X connect 49 1 50 1;
#X connect 50 0 51 0;
#X connect 52 0 50 0;
#X connect 53 0 54 0;
#X connect 54 0 45 0;
#X connect 55 0 56 0;
#X connect 56 0 61 0;
#X connect 57 0 58 0;
#X connect 57 0 59 0;
#X connect 58 0 60 0;
#X connect 59 0 61 1;
#X connect 60 0 56 1;
#X connect 61 0 62 0;
#X connect 62 0 63 0;
#X connect 62 0 64 0;
#X connect 63 0 65 0;
#X connect 63 1 65 1;
#X connect 65 0 66 0;
#X connect 66 0 67 0;
#X connect 67 0 68 0;
#X connect 67 1 68 1;
#X connect 68 0 69 0;
#X connect 70 0 68 0;
#X connect 71 0 72 0;
#X connect 72 0 63 0;
#X connect 73 0 74 0;
#X connect 74 0 79 0;
#X connect 75 0 76 0;
#X connect 75 0 77 0;
#X connect 76 0 78 0;
#X connect 77 0 79 1;
#X connect 78 0 74 1;
#X connect 79 0 80 0;
#X connect 80 0 81 0;
#X connect 80 0 82 0;
#X connect 81 0 83 0;
#X connect 81 1 83 1;
#X connect 83 0 84 0;
#X connect 84 0 85 0;
#X connect 85 0 86 0;
#X connect 85 1 86 1;
#X connect 86 0 87 0;
#X connect 88 0 86 0;
#X connect 89 0 90 0;
#X connect 90 0 81 0;
#X connect 91 0 92 0;
#X connect 92 0 97 0;
#X connect 93 0 94 0;
#X connect 93 0 95 0;
#X connect 94 0 96 0;
#X connect 95 0 97 1;
#X connect 96 0 92 1;
#X connect 97 0 98 0;
#X connect 98 0 99 0;
#X connect 98 0 100 0;
#X connect 99 0 101 0;
#X connect 99 1 101 1;
#X connect 101 0 102 0;
#X connect 102 0 103 0;
#X connect 103 0 104 0;
#X connect 103 1 104 1;
#X connect 104 0 105 0;
#X connect 106 0 104 0;
#X connect 107 0 108 0;
#X connect 108 0 99 0;
#X connect 109 0 110 0;
#X connect 110 0 115 0;
#X connect 111 0 112 0;
#X connect 111 0 113 0;
#X connect 112 0 114 0;
#X connect 113 0 115 1;
#X connect 114 0 110 1;
#X connect 115 0 116 0;
#X connect 116 0 117 0;
#X connect 116 0 118 0;
#X connect 117 0 119 0;
#X connect 117 1 119 1;
#X connect 119 0 120 0;
#X connect 120 0 121 0;
#X connect 121 0 122 0;
#X connect 121 1 122 1;
#X connect 122 0 123 0;
#X connect 124 0 122 0;
#X connect 125 0 126 0;
#X connect 126 0 117 0;
#X connect 127 0 128 0;
#X connect 128 0 133 0;
#X connect 129 0 130 0;
#X connect 129 0 131 0;
#X connect 130 0 132 0;
#X connect 131 0 133 1;
#X connect 132 0 128 1;
#X connect 133 0 134 0;
#X connect 134 0 135 0;
#X connect 134 0 136 0;
#X connect 135 0 137 0;
#X connect 135 1 137 1;
#X connect 137 0 138 0;
#X connect 138 0 139 0;
#X connect 139 0 140 0;
#X connect 139 1 140 1;
#X connect 140 0 141 0;
#X connect 142 0 140 0;
#X connect 143 0 144 0;
#X connect 144 0 135 0;
#X restore 1422 163 pd duracion de cada parcial;
#X floatatom 2282 218 5 0 0 0 - #0_f8 -;
#X obj 2282 255 osc~;
#X obj 2336 205 bng 15 250 50 0 empty bang empty 17 7 0 10 -262144
-1 -1;
#X floatatom 2374 204 5 0 0 0 - d1 -;
#X obj 2346 286 f;
#X obj 2344 357 vline~;
#X obj 2344 381 pow~ 4;
#X obj 2283 433 *~;
#X obj 2283 488 *~;
#X floatatom 2336 460 5 0 0 0 - a8 -;
#X text 168 126 (0-10000) (0-1000) (0-0 \, 8) \, ojo satur. (20-20000)
(0-1) (0-1000) (0-1) (0-1000);
#X obj 957 53 inlet;
#X obj 1396 721 outlet~;
#X floatatom 734 453 5 0 0 0 Ataque - at;
#X floatatom 1057 220 5 0 0 0 - at -;
#X obj 1030 268 f;
#X floatatom 1274 219 5 0 0 0 - at -;
#X obj 1237 267 f;
#X floatatom 1462 210 5 0 0 0 - at -;
#X obj 1420 279 f;
#X floatatom 1653 217 5 0 0 0 - at -;
#X obj 1607 273 f;
#X floatatom 1855 209 5 0 0 0 - at -;
#X obj 1808 270 f;
#X floatatom 2041 209 5 0 0 0 - at -;
#X obj 2002 268 f;
#X floatatom 2236 207 5 0 0 0 - at -;
#X obj 2199 268 f;
#X floatatom 2436 199 5 0 0 0 - at -;
#X obj 2388 265 f;
#X obj 987 309 pack \$1 \$2 \$3;
#X obj 1064 271 f;
#X msg 987 351 0 \, 1 \$2 \, 0 \$1 \$3;
#X obj 1274 274 f;
#X obj 1199 306 pack \$1 \$2 \$3;
#X msg 1184 331 0 \, 1 \$2 \, 0 \$1 \$3;
#X obj 1467 273 f;
#X obj 1410 309 pack \$1 \$2 \$3;
#X msg 1376 334 0 \, 1 \$2 \, 0 \$1 \$3;
#X obj 1653 271 f;
#X obj 1610 305 pack \$1 \$2 \$3;
#X msg 1572 331 0 \, 1 \$2 \, 0 \$1 \$3;
#X obj 1852 267 f;
#X obj 1799 300 pack \$1 \$2 \$3;
#X msg 1762 328 0 \, 1 \$2 \, 0 \$1 \$3;
#X obj 2046 267 f;
#X obj 1989 302 pack \$1 \$2 \$3;
#X msg 1963 327 0 \, 1 \$2 \, 0 \$1 \$3;
#X obj 2240 262 f;
#X obj 2178 302 pack \$1 \$2 \$3;
#X msg 2149 328 0 \, 1 \$2 \, 0 \$1 \$3;
#X obj 2432 257 f;
#X obj 2393 301 pack \$1 \$2 \$3;
#X msg 2344 332 0 \, 1 \$2 \, 0 \$1 \$3;
#X obj 930 514 throw~ mezcla1;
#X obj 1123 510 throw~ mezcla1;
#X obj 1314 513 throw~ mezcla1;
#X obj 1511 510 throw~ mezcla1;
#X obj 1701 507 throw~ mezcla1;
#X obj 1902 506 throw~ mezcla1;
#X obj 2088 507 throw~ mezcla1;
#X obj 2283 512 throw~ mezcla1;
#X obj 1408 559 catch~ mezcla1;
#X obj 1071 245 * 5;
#X obj 1281 248 * 5;
#X obj 1474 247 * 5;
#X obj 1660 245 * 5;
#X obj 1859 241 * 5;
#X obj 2049 238 * 5;
#X obj 2247 236 * 5;
#X obj 2439 231 * 5;
#X connect 1 0 2 0;
#X connect 2 0 8 0;
#X connect 3 0 5 0;
#X connect 3 0 112 0;
#X connect 3 0 128 0;
#X connect 4 0 5 1;
#X connect 5 0 127 0;
#X connect 6 0 7 0;
#X connect 7 0 8 1;
#X connect 8 0 9 0;
#X connect 9 0 151 0;
#X connect 10 0 9 1;
#X connect 11 0 12 0;
#X connect 12 0 18 0;
#X connect 13 0 15 0;
#X connect 13 0 114 0;
#X connect 13 0 130 0;
#X connect 14 0 15 1;
#X connect 15 0 131 0;
#X connect 16 0 17 0;
#X connect 17 0 18 1;
#X connect 18 0 19 0;
#X connect 19 0 152 0;
#X connect 20 0 19 1;
#X connect 21 0 22 0;
#X connect 22 0 28 0;
#X connect 23 0 25 0;
#X connect 23 0 116 0;
#X connect 23 0 133 0;
#X connect 24 0 25 1;
#X connect 25 0 134 0;
#X connect 26 0 27 0;
#X connect 27 0 28 1;
#X connect 28 0 29 0;
#X connect 29 0 153 0;
#X connect 30 0 29 1;
#X connect 31 0 32 0;
#X connect 32 0 38 0;
#X connect 33 0 35 0;
#X connect 33 0 118 0;
#X connect 33 0 136 0;
#X connect 34 0 35 1;
#X connect 35 0 137 0;
#X connect 36 0 37 0;
#X connect 37 0 38 1;
#X connect 38 0 39 0;
#X connect 39 0 154 0;
#X connect 40 0 39 1;
#X connect 41 0 42 0;
#X connect 42 0 48 0;
#X connect 43 0 45 0;
#X connect 43 0 120 0;
#X connect 43 0 139 0;
#X connect 44 0 45 1;
#X connect 45 0 140 0;
#X connect 46 0 47 0;
#X connect 47 0 48 1;
#X connect 48 0 49 0;
#X connect 49 0 155 0;
#X connect 50 0 49 1;
#X connect 51 0 52 0;
#X connect 52 0 58 0;
#X connect 53 0 55 0;
#X connect 53 0 122 0;
#X connect 53 0 142 0;
#X connect 54 0 55 1;
#X connect 55 0 143 0;
#X connect 56 0 57 0;
#X connect 57 0 58 1;
#X connect 58 0 59 0;
#X connect 59 0 156 0;
#X connect 60 0 59 1;
#X connect 61 0 62 0;
#X connect 62 0 68 0;
#X connect 63 0 65 0;
#X connect 63 0 124 0;
#X connect 63 0 145 0;
#X connect 64 0 65 1;
#X connect 65 0 146 0;
#X connect 66 0 67 0;
#X connect 67 0 68 1;
#X connect 68 0 69 0;
#X connect 69 0 157 0;
#X connect 70 0 69 1;
#X connect 71 0 74 0;
#X connect 71 0 109 0;
#X connect 72 0 73 0;
#X connect 73 0 71 1;
#X connect 74 0 75 0;
#X connect 97 0 98 0;
#X connect 98 0 104 0;
#X connect 99 0 101 0;
#X connect 99 0 126 0;
#X connect 99 0 148 0;
#X connect 100 0 101 1;
#X connect 101 0 149 0;
#X connect 102 0 103 0;
#X connect 103 0 104 1;
#X connect 104 0 105 0;
#X connect 105 0 158 0;
#X connect 106 0 105 1;
#X connect 108 0 79 0;
#X connect 111 0 112 1;
#X connect 111 0 160 0;
#X connect 112 0 127 1;
#X connect 113 0 114 1;
#X connect 113 0 161 0;
#X connect 114 0 131 1;
#X connect 115 0 116 1;
#X connect 115 0 162 0;
#X connect 116 0 134 1;
#X connect 117 0 118 1;
#X connect 117 0 163 0;
#X connect 118 0 137 1;
#X connect 119 0 120 1;
#X connect 119 0 164 0;
#X connect 120 0 140 1;
#X connect 121 0 122 1;
#X connect 121 0 165 0;
#X connect 122 0 143 1;
#X connect 123 0 124 1;
#X connect 123 0 166 0;
#X connect 124 0 146 1;
#X connect 125 0 126 1;
#X connect 125 0 167 0;
#X connect 126 0 149 1;
#X connect 127 0 129 0;
#X connect 128 0 127 2;
#X connect 129 0 6 0;
#X connect 130 0 131 2;
#X connect 131 0 132 0;
#X connect 132 0 16 0;
#X connect 133 0 134 2;
#X connect 134 0 135 0;
#X connect 135 0 26 0;
#X connect 136 0 137 2;
#X connect 137 0 138 0;
#X connect 138 0 36 0;
#X connect 139 0 140 2;
#X connect 140 0 141 0;
#X connect 141 0 46 0;
#X connect 142 0 143 2;
#X connect 143 0 144 0;
#X connect 144 0 56 0;
#X connect 145 0 146 2;
#X connect 146 0 147 0;
#X connect 147 0 66 0;
#X connect 148 0 149 2;
#X connect 149 0 150 0;
#X connect 150 0 102 0;
#X connect 159 0 71 0;
#X connect 160 0 128 1;
#X connect 161 0 130 1;
#X connect 162 0 133 1;
#X connect 163 0 136 1;
#X connect 164 0 139 1;
#X connect 165 0 142 1;
#X connect 166 0 145 1;
#X connect 167 0 148 1;
#X coords 0 0 10 10 0 0 0;
