#N canvas -8 -8 1920 989 12;
#X obj -322 -4 cnv 15 10000 6000 empty empty empty 20 12 0 14 -232576
-66577 0;
#X floatatom 811 260 5 0 0 0 - freq -;
#X floatatom 812 287 5 0 0 0 - - e.arm;
#X floatatom 812 317 5 0 0.8 0 - - a.fund;
#X floatatom 812 347 5 0 0 0 - - d.fund;
#X floatatom 814 377 5 0 1 0 - - a.brillo;
#X floatatom 815 403 5 0 0 0 - - e.amp;
#X floatatom 815 430 5 0 1 0 - - s.brillo;
#X floatatom 815 456 5 0 0 0 - - e.sus;
#X text 656 261 Freq. fundamental(Hz);
#X text 663 289 Error de armonicidad;
#X text 670 316 Amplitud (de fund.);
#X text 607 347 Dur. de dec. (de fund.) (ms);
#X text 677 377 Amplitud de brillo;
#X text 684 404 Error de amplitud;
#X text 683 430 Sustain de brillo;
#X text 690 457 Error de sustain;
#X obj 830 162 bng 30 250 50 0 prebang empty empty 17 7 0 10 -260808
-1 -1;
#X obj 974 227 sintesis_aditiva2;
#X obj 865 198 sintesis_aditiva1;
#X obj 1052 199 sintesis_aditiva3;
#X floatatom 1006 169 5 0 0 0 - - -;
#X floatatom 1105 156 5 0 0 0 - - -;
#X obj 1011 378 *~;
#X obj 934 836 dac~;
#X floatatom 814 489 5 20 127 0 nota_midid #funda freqmidi;
#X floatatom 916 30 5 0 0 0 - freqmidi -;
#X obj 874 53 mtof;
#X floatatom 861 90 5 0 0 0 - - freq;
#X obj 1006 140 mtof;
#X obj 1106 125 mtof;
#X obj 30 210 cnv 15 170 250 empty empty CLOCK 20 12 0 14 -262130 -66577
0;
#X obj 62 246 i;
#X obj 93 246 + 1;
#X obj 488 112 metro 1 120 permin, f 19;
#X obj 457 26 tgl 20 0 empty empty empty 17 7 0 10 -262144 -1 -1 0
1;
#X msg 495 81 tempo \$1 permin;
#X floatatom 500 50 5 0 0 0 - - -;
#X floatatom 811 521 5 0 0 0 Ataque - at;
#X floatatom 1018 19 5 0 0 0 - #ar1 -;
#X floatatom 1132 6 5 0 0 0 - #ar2 -;
#X obj 35 1016 unpack f f f f f;
#X msg 35 992 48 52 55 59 62;
#X obj 197 1021 unpack f f f f f;
#X msg 197 997 50 53 57 60 64;
#X obj 339 1024 unpack f f f f f;
#X msg 339 1000 52 55 59 62 65;
#X obj 473 1024 unpack f f f f f;
#X msg 473 1000 53 57 60 64 67;
#X obj 609 1023 unpack f f f f f;
#X msg 609 999 55 59 62 65 69;
#X obj 746 1021 unpack f f f f f;
#X msg 746 997 57 60 64 67 71;
#X floatatom 12 896 5 0 0 1 Acordes fun -;
#X floatatom 35 1040 5 0 0 0 - - #funda;
#X floatatom 160 1046 5 0 0 0 - - #funda;
#X floatatom 339 1048 5 0 0 0 - - #funda;
#X floatatom 473 1048 5 0 0 0 - - #funda;
#X floatatom 609 1047 5 0 0 0 - - #funda;
#X floatatom 746 1045 5 0 0 0 - - #funda;
#X obj -248 47 random 6;
#X obj 62 276 % 4;
#X obj 64 309 select 0 1 2 3;
#X obj 13 358 f;
#X floatatom 13 388 5 0 0 0 - - fun;
#X floatatom 64 379 5 0 0 0 - - fun1;
#X floatatom 108 378 5 0 0 0 - - fun2;
#X floatatom 153 378 5 0 0 0 - - fun3;
#X obj 326 74 bng 15 250 50 0 empty empty empty 17 7 0 10 -262144 -1
-1;
#X obj 60 958 select 0 1 2 3 4 5;
#X msg 9 312 0;
#X floatatom 204 1052 5 0 0 0 - - #ar1;
#X floatatom 249 1069 5 0 0 0 - - #ar2;
#X obj 1005 110 f;
#X obj 1106 101 f;
#X floatatom 78 1054 5 0 0 0 - - #ar1;
#X floatatom 123 1071 5 0 0 0 - - #ar2;
#X floatatom 380 1068 5 0 0 0 - - #ar1;
#X floatatom 425 1085 5 0 0 0 - - #ar2;
#X floatatom 525 1067 5 0 0 0 - - #ar1;
#X floatatom 570 1084 5 0 0 0 - - #ar2;
#X floatatom 657 1072 5 0 0 0 - - #ar1;
#X floatatom 702 1089 5 0 0 0 - - #ar2;
#X floatatom 788 1071 5 0 0 0 - - #ar1;
#X floatatom 833 1088 5 0 0 0 - - #ar2;
#X obj 931 72 bng 15 250 50 0 empty empty empty 17 7 0 10 -262144 -1
-1;
#X floatatom 24 566 5 0 0 0 - - -;
#X obj 28 524 f;
#X floatatom 52 493 5 0 0 0 - #funda -;
#X floatatom 89 564 5 0 0 0 - - -;
#X obj 93 522 f;
#X floatatom 122 493 5 0 0 0 - #funda -;
#X floatatom 168 565 5 0 0 0 - - -;
#X obj 172 523 f;
#X floatatom 201 494 5 0 0 0 - #funda -;
#X floatatom 240 560 5 0 0 0 - - -;
#X obj 244 518 f;
#X floatatom 273 489 5 0 0 0 - #funda -;
#X obj 23 614 - 12;
#X obj 90 616 - 12;
#X obj 171 612 - 12;
#X obj 241 614 - 12;
#X floatatom 23 638 5 0 0 0 - - fundabajo;
#X floatatom 90 640 5 0 0 0 - - fundabajo;
#X floatatom 171 636 5 0 0 0 - - fundabajo;
#X floatatom 241 638 5 0 0 0 - - fundabajo;
#X floatatom 89 856 5 0 0 0 - - esta;
#X floatatom 137 856 5 0 0 0 - - esta;
#X floatatom 182 856 5 0 0 0 - - esta;
#X obj 118 744 random 2;
#X obj 192 744 random 2;
#X obj 265 748 random 2;
#X floatatom 1200 301 5 0 0 0 - esta -;
#X obj 1196 325 select 0 1;
#X floatatom 1167 370 5 0 0 0 - - -;
#X floatatom 1255 406 5 0 0 0 - - -;
#X obj 1250 378 f;
#X floatatom 1283 354 5 0 0 0 - fundabajo -;
#X obj 1244 494 *~;
#X floatatom 1359 501 5 0 1 0 - - -;
#X obj 1231 356 bng 15 250 50 0 empty empty empty 17 7 0 10 -262144
-1 -1;
#X obj 433 239 i;
#X obj 464 239 + 1;
#X obj 427 209 metro 1 120 permin, f 19;
#X msg 406 176 tempo \$1 permin;
#X floatatom 540 143 5 0 0 0 - - -;
#X obj 86 809 select 0 1 2 3 4 5 6 7;
#X floatatom 272 856 5 0 0 0 - - esta;
#X floatatom 322 856 5 0 0 0 - - esta;
#X floatatom 378 855 5 0 0 0 - - esta;
#X obj 338 748 random 2;
#X obj 412 748 random 2;
#X obj 485 752 random 2;
#X obj 438 278 % 8;
#N canvas 632 3 988 926 sintetizador_sustractivo 0;
#X obj 573 98 cnv 15 350 320 empty empty ENVOLVENTE 20 12 0 14 -261234
-66577 0;
#X obj 39 96 cnv 15 170 320 empty empty OSCILADOR 20 12 0 14 -204800
-66577 0;
#X obj 216 97 cnv 15 350 320 empty empty FILTRO 20 12 0 14 -203904
-66577 0;
#X obj 60 155 hsl 128 15 0 127 0 0 empty empty PITCH -2 -8 0 10 -262144
-1 -1 0 1;
#X floatatom 57 175 5 0 0 0 - - -;
#X obj 57 194 mtof;
#X floatatom 57 216 5 0 0 0 - - -;
#X obj 59 264 pack f 10;
#X obj 59 286 line~;
#X obj 59 308 phasor~;
#X obj 59 330 *~ 2;
#X obj 59 352 -~ 1;
#X obj 254 152 hsl 128 15 0 127 0 0 empty empty CUTOFF -2 -8 0 10 -262144
-1 -1 0 1;
#X floatatom 251 179 5 0 0 0 - - -;
#X obj 251 198 pack f 20;
#X obj 251 220 line~;
#X obj 251 242 +~;
#X obj 251 264 mtof~;
#X obj 251 286 clip~ 0 19000;
#X obj 404 154 hsl 128 15 0 127 0 0 empty empty INTENSIDAD -2 -8 0
10 -262144 -1 -1 0 1;
#X floatatom 401 178 5 0 0 0 - - -;
#X obj 401 197 pack f 20;
#X obj 401 219 line~;
#X obj 401 241 *~;
#X obj 408 288 hsl 128 15 0 3 0 0 empty empty Q -2 -8 0 10 -262144
-1 -1 0 1;
#X floatatom 405 312 5 0 0 0 - - -;
#X obj 405 331 pack f 20;
#X obj 405 353 line~;
#X obj 240 369 bob~;
#X obj 634 155 hsl 128 15 1 25 0 0 empty empty ATAQUE -2 -8 0 10 -262144
-1 -1 0 1;
#X floatatom 633 174 5 0 0 0 - - -;
#X obj 777 154 hsl 128 15 1 300 0 0 empty empty DECAY -2 -8 0 10 -262144
-1 -1 0 1;
#X floatatom 774 174 5 0 0 0 - - -;
#X obj 600 268 vline~;
#X obj 600 290 pow~ 2;
#X obj 600 154 bng 15 250 50 0 empty empty empty 17 7 0 10 -262144
-1 -1;
#X obj 582 331 *~;
#X obj 57 53 inlet;
#X obj 600 54 inlet;
#X obj 581 447 outlet~;
#X obj 600 224 pack b f f f;
#X msg 600 245 1 \$2 \, 0 \$3 \$4;
#X floatatom 690 178 5 0 0 0 - - -;
#X obj 58 239 / 2;
#X obj 681 330 * 0.5;
#X connect 3 0 4 0;
#X connect 4 0 5 0;
#X connect 5 0 6 0;
#X connect 6 0 43 0;
#X connect 7 0 8 0;
#X connect 8 0 9 0;
#X connect 9 0 10 0;
#X connect 10 0 11 0;
#X connect 11 0 28 0;
#X connect 12 0 13 0;
#X connect 13 0 14 0;
#X connect 14 0 15 0;
#X connect 15 0 16 0;
#X connect 16 0 17 0;
#X connect 17 0 18 0;
#X connect 18 0 28 1;
#X connect 19 0 20 0;
#X connect 20 0 21 0;
#X connect 21 0 22 0;
#X connect 22 0 23 0;
#X connect 23 0 16 1;
#X connect 24 0 25 0;
#X connect 25 0 26 0;
#X connect 26 0 27 0;
#X connect 27 0 28 2;
#X connect 28 0 36 0;
#X connect 29 0 30 0;
#X connect 30 0 40 1;
#X connect 31 0 32 0;
#X connect 32 0 40 2;
#X connect 33 0 34 0;
#X connect 34 0 36 1;
#X connect 34 0 23 1;
#X connect 35 0 40 0;
#X connect 36 0 39 0;
#X connect 37 0 3 0;
#X connect 38 0 35 0;
#X connect 40 0 41 0;
#X connect 41 0 33 0;
#X connect 42 0 40 3;
#X connect 43 0 7 0;
#X connect 44 0 36 1;
#X restore 1247 454 pd sintetizador_sustractivo;
#X obj 506 408 melodia;
#X obj 510 335 * 4;
#N canvas 1912 -8 1280 981 sintetizador_sustractivo 0;
#X obj 573 98 cnv 15 350 320 empty empty ENVOLVENTE 20 12 0 14 -261234
-66577 0;
#X obj 39 96 cnv 15 170 320 empty empty OSCILADOR 20 12 0 14 -204800
-66577 0;
#X obj 216 97 cnv 15 350 320 empty empty FILTRO 20 12 0 14 -203904
-66577 0;
#X obj 60 155 hsl 128 15 0 127 0 0 empty empty PITCH -2 -8 0 10 -262144
-1 -1 0 1;
#X floatatom 57 175 5 0 0 0 - - -;
#X obj 57 194 mtof;
#X floatatom 57 216 5 0 0 0 - - -;
#X obj 59 264 pack f 10;
#X obj 59 286 line~;
#X obj 59 308 phasor~;
#X obj 59 330 *~ 2;
#X obj 59 352 -~ 1;
#X floatatom 251 179 5 0 0 0 - - -;
#X obj 251 198 pack f 20;
#X obj 251 220 line~;
#X obj 251 242 +~;
#X obj 251 264 mtof~;
#X obj 251 286 clip~ 0 19000;
#X floatatom 401 178 5 0 0 0 - - -;
#X obj 401 197 pack f 20;
#X obj 401 219 line~;
#X obj 401 241 *~;
#X obj 408 288 hsl 128 15 0 3 0 0 empty empty Q -2 -8 0 10 -262144
-1 -1 0 1;
#X floatatom 405 312 5 0 0 0 - - -;
#X obj 405 331 pack f 20;
#X obj 405 353 line~;
#X obj 240 369 bob~;
#X floatatom 634 183 5 0 0 0 - - -;
#X floatatom 771 183 5 0 0 0 - - -;
#X obj 600 268 vline~;
#X obj 600 290 pow~ 2;
#X obj 600 154 bng 15 250 50 0 empty empty empty 17 7 0 10 -262144
-1 -1;
#X obj 582 331 *~;
#X obj 57 53 inlet;
#X obj 600 54 inlet;
#X obj 581 447 outlet~;
#X obj 600 224 pack b f f f;
#X msg 600 245 1 \$2 \, 0 \$3 \$4;
#X floatatom 690 178 5 0 0 0 - - -;
#X msg 288 67 34;
#X msg 675 67 6.669;
#X obj 428 14 loadbang;
#X msg 742 62 400;
#X msg 802 62 1970;
#X msg 401 71 7;
#X connect 3 0 4 0;
#X connect 4 0 5 0;
#X connect 5 0 6 0;
#X connect 6 0 7 0;
#X connect 7 0 8 0;
#X connect 8 0 9 0;
#X connect 9 0 10 0;
#X connect 10 0 11 0;
#X connect 11 0 26 0;
#X connect 12 0 13 0;
#X connect 13 0 14 0;
#X connect 14 0 15 0;
#X connect 15 0 16 0;
#X connect 16 0 17 0;
#X connect 17 0 26 1;
#X connect 18 0 19 0;
#X connect 19 0 20 0;
#X connect 20 0 21 0;
#X connect 21 0 15 1;
#X connect 22 0 23 0;
#X connect 23 0 24 0;
#X connect 24 0 25 0;
#X connect 25 0 26 2;
#X connect 26 0 32 0;
#X connect 27 0 36 1;
#X connect 28 0 36 2;
#X connect 29 0 30 0;
#X connect 30 0 32 1;
#X connect 30 0 21 1;
#X connect 31 0 36 0;
#X connect 32 0 35 0;
#X connect 33 0 3 0;
#X connect 34 0 31 0;
#X connect 36 0 37 0;
#X connect 37 0 29 0;
#X connect 38 0 36 3;
#X connect 39 0 12 0;
#X connect 40 0 27 0;
#X connect 41 0 39 0;
#X connect 41 0 40 0;
#X connect 41 0 42 0;
#X connect 41 0 43 0;
#X connect 41 0 44 0;
#X connect 42 0 38 0;
#X connect 43 0 28 0;
#X connect 44 0 18 0;
#X restore 1467 454 pd sintetizador_sustractivo;
#X floatatom 508 373 5 0 0 0 - - beatmelo;
#X obj 399 15 tgl 20 0 prender empty empty 17 7 0 10 -262144 -1 -1
0 1;
#X msg 13 826 1;
#X obj 721 146 bng 15 250 50 0 empty empty empty 17 7 0 10 -262144
-1 -1;
#X floatatom -182 60 5 0 0 0 - fun -;
#X obj -247 91 pack f f;
#X floatatom 107 898 5 0 0 1 Acordes fun1 -;
#X floatatom 199 899 5 0 0 1 Acordes fun2 -;
#X floatatom 293 901 5 0 0 1 Acordes fun3 -;
#X floatatom -247 161 5 0 0 0 - - -;
#X obj -247 114 expr if($f1 == $f2 \, $f1 - 1 \, $f1);
#X obj -249 21 delay 750;
#X floatatom -247 68 5 0 0 0 - - -;
#X msg -302 55 bang;
#X obj -250 216 random 6;
#X floatatom -184 229 5 0 0 0 - fun1 -;
#X obj -249 260 pack f f;
#X floatatom -249 329 5 0 0 0 - - -;
#X obj -248 281 expr if($f1 == $f2 \, $f1 - 1 \, $f1);
#X floatatom -249 237 5 0 0 0 - - -;
#X msg -304 224 bang;
#X obj -251 190 delay 1500;
#X obj -249 385 random 6;
#X floatatom -183 398 5 0 0 0 - fun2 -;
#X obj -248 429 pack f f;
#X floatatom -248 483 5 0 0 0 - - -;
#X obj -247 461 expr if($f1 == $f2 \, $f1 - 1 \, $f1);
#X floatatom -248 406 5 0 0 0 - - -;
#X msg -303 393 bang;
#X obj -250 359 delay 2250;
#X floatatom 1201 222 5 0 0 0 - - -;
#X obj 1200 195 mtof;
#X floatatom 1218 -16 5 0 0 0 - #ar3 -;
#X obj 1200 171 f;
#X obj 1141 245 sintesis_aditiva4;
#X floatatom 744 1113 5 0 0 0 - - #ar3;
#X floatatom 778 1137 5 0 0 0 - - #ar4;
#X floatatom 609 1104 5 0 0 0 - - #ar3;
#X floatatom 648 1126 5 0 0 0 - - #ar4;
#X floatatom 879 1103 5 0 0 0 - - #ar3;
#X floatatom 913 1127 5 0 0 0 - - #ar4;
#X floatatom 470 1107 5 0 0 0 - - #ar3;
#X floatatom 509 1129 5 0 0 0 - - #ar4;
#X floatatom 290 1092 5 0 0 0 - - #ar3;
#X floatatom 329 1114 5 0 0 0 - - #ar4;
#X floatatom 162 1097 5 0 0 0 - - #ar3;
#X floatatom 201 1119 5 0 0 0 - - #ar4;
#X obj 1235 145 bng 15 250 50 0 empty empty empty 17 7 0 10 -262144
-1 -1;
#X floatatom 1354 225 5 0 0 0 - - -;
#X obj 1353 198 mtof;
#X floatatom 1366 -15 5 0 0 0 - #ar4 -;
#X obj 1353 174 f;
#X obj 1394 144 bng 15 250 50 0 empty empty empty 17 7 0 10 -262144
-1 -1;
#X obj 1018 281 /~ 5;
#X floatatom 40 857 5 0 0 0 - - -;
#X floatatom 227 855 5 0 0 0 - - esta;
#X obj 418 697 *~;
#X obj 560 567 line 20000 0 \, 0 12000;
#X floatatom 455 613 50 0 0 0 - - -;
#X obj 452 506 moses 1;
#X msg 491 535 20000 0 \, 1 12000;
#X obj 356 629 hip~ 1;
#X msg 464 575 40000;
#X obj 981 462 +~;
#X msg 1417 498 0.3;
#X msg 876 314 0.56;
#X msg 879 346 4103;
#X msg 877 375 0.34;
#X msg 882 401 0;
#X msg 880 430 1;
#X msg 883 462 0;
#X msg 616 673 0 10000;
#X floatatom 615 652 5 0 0 0 - apagar -;
#X obj 539 710 line;
#X obj 460 5 bng 15 250 50 0 empty masterbang empty 17 7 0 10 -262144
-1 -1;
#X msg 881 521 500;
#X obj 915 734 cos~;
#X obj 1004 733 cos~;
#X obj 984 673 + 0.75;
#X obj 921 775 *~;
#X obj 962 772 *~;
#X obj 1049 661 select 1;
#X obj 854 662 select 0;
#X msg 907 584 0.25 5000;
#X msg 1012 573 0 5000;
#X obj 947 639 line;
#X msg 1076 329 1;
#X obj -247 138 expr if($f1 == -1 \, 2 \, $f1);
#X msg 501 17 20;
#X msg 536 674 0.6 10000;
#X obj 535 651 delay 10;
#X msg 494 651 0;
#X obj 1197 38 random 100;
#X obj 1358 35 random 100;
#X obj 1294 254 sintesis_aditiva5;
#X msg 878 278 0;
#X obj -249 304 expr if($f1 == -1 \, 2 \, $f1);
#X floatatom 1356 85 5 0 0 0 - - -;
#X obj 1355 114 moses 1;
#X floatatom 1200 89 5 0 0 0 - - -;
#X obj 1199 118 moses 1;
#X obj 1002 75 delay 350;
#X obj 1099 75 delay 750;
#X obj 1188 12 delay 1125;
#X obj 1348 11 delay 1500;
#X obj 1197 60 > 20;
#X obj 1356 59 > 50;
#X obj 1347 143 bng 15 250 50 0 empty empty empty 17 7 0 10 -262144
-1 -1;
#X obj 1187 146 bng 15 250 50 0 empty empty empty 17 7 0 10 -262144
-1 -1;
#X connect 1 0 19 0;
#X connect 18 0 191 0;
#X connect 19 0 191 0;
#X connect 20 0 191 0;
#X connect 21 0 18 0;
#X connect 22 0 20 0;
#X connect 23 0 201 0;
#X connect 26 0 27 0;
#X connect 26 0 17 0;
#X connect 26 0 85 0;
#X connect 27 0 28 0;
#X connect 29 0 21 0;
#X connect 30 0 22 0;
#X connect 32 0 33 0;
#X connect 32 0 61 0;
#X connect 33 0 32 1;
#X connect 34 0 32 0;
#X connect 34 0 141 0;
#X connect 35 0 34 0;
#X connect 35 0 68 0;
#X connect 35 0 70 0;
#X connect 35 0 123 0;
#X connect 35 0 139 0;
#X connect 35 0 226 0;
#X connect 35 0 197 0;
#X connect 36 0 34 0;
#X connect 37 0 36 0;
#X connect 37 0 136 0;
#X connect 39 0 73 1;
#X connect 40 0 74 1;
#X connect 41 0 54 0;
#X connect 41 1 75 0;
#X connect 41 2 76 0;
#X connect 41 3 183 0;
#X connect 41 4 184 0;
#X connect 42 0 41 0;
#X connect 43 0 55 0;
#X connect 43 1 71 0;
#X connect 43 2 72 0;
#X connect 43 3 181 0;
#X connect 43 4 182 0;
#X connect 44 0 43 0;
#X connect 45 0 56 0;
#X connect 45 1 77 0;
#X connect 45 2 78 0;
#X connect 45 3 179 0;
#X connect 45 4 180 0;
#X connect 46 0 45 0;
#X connect 47 0 57 0;
#X connect 47 1 79 0;
#X connect 47 2 80 0;
#X connect 47 3 175 0;
#X connect 47 4 176 0;
#X connect 48 0 47 0;
#X connect 49 0 58 0;
#X connect 49 1 81 0;
#X connect 49 2 82 0;
#X connect 49 3 173 0;
#X connect 49 4 174 0;
#X connect 50 0 49 0;
#X connect 51 0 59 0;
#X connect 51 1 83 0;
#X connect 51 2 84 0;
#X connect 51 3 177 0;
#X connect 51 4 178 0;
#X connect 52 0 51 0;
#X connect 53 0 69 0;
#X connect 60 0 150 0;
#X connect 61 0 62 0;
#X connect 62 0 63 0;
#X connect 62 0 87 0;
#X connect 62 1 65 0;
#X connect 62 1 90 0;
#X connect 62 2 66 0;
#X connect 62 2 93 0;
#X connect 62 3 67 0;
#X connect 62 3 96 0;
#X connect 63 0 64 0;
#X connect 68 0 111 0;
#X connect 68 0 131 0;
#X connect 68 0 149 0;
#X connect 68 0 159 0;
#X connect 68 0 167 0;
#X connect 68 0 140 0;
#X connect 68 0 109 0;
#X connect 68 0 132 0;
#X connect 68 0 130 0;
#X connect 68 0 110 0;
#X connect 68 0 202 0;
#X connect 68 0 233 0;
#X connect 68 0 203 0;
#X connect 68 0 204 0;
#X connect 68 0 205 0;
#X connect 68 0 206 0;
#X connect 68 0 207 0;
#X connect 68 0 208 0;
#X connect 68 0 213 0;
#X connect 68 0 224 0;
#X connect 68 0 228 0;
#X connect 68 0 229 0;
#X connect 68 0 221 0;
#X connect 69 0 42 0;
#X connect 69 1 44 0;
#X connect 69 2 46 0;
#X connect 69 3 48 0;
#X connect 69 4 50 0;
#X connect 69 5 52 0;
#X connect 70 0 63 1;
#X connect 73 0 29 0;
#X connect 74 0 30 0;
#X connect 85 0 239 0;
#X connect 85 0 240 0;
#X connect 85 0 241 0;
#X connect 85 0 242 0;
#X connect 86 0 98 0;
#X connect 87 0 86 0;
#X connect 88 0 87 1;
#X connect 89 0 99 0;
#X connect 90 0 89 0;
#X connect 91 0 90 1;
#X connect 92 0 100 0;
#X connect 93 0 92 0;
#X connect 94 0 93 1;
#X connect 95 0 101 0;
#X connect 96 0 95 0;
#X connect 97 0 96 1;
#X connect 98 0 102 0;
#X connect 99 0 103 0;
#X connect 100 0 104 0;
#X connect 101 0 105 0;
#X connect 109 0 106 0;
#X connect 110 0 107 0;
#X connect 111 0 108 0;
#X connect 112 0 113 0;
#X connect 113 0 114 0;
#X connect 113 1 120 0;
#X connect 115 0 134 0;
#X connect 115 0 134 1;
#X connect 115 0 137 0;
#X connect 115 0 137 1;
#X connect 116 0 115 0;
#X connect 117 0 116 1;
#X connect 118 0 201 1;
#X connect 119 0 118 1;
#X connect 120 0 116 0;
#X connect 121 0 122 0;
#X connect 121 0 133 0;
#X connect 122 0 121 1;
#X connect 123 0 121 0;
#X connect 124 0 123 0;
#X connect 125 0 124 0;
#X connect 126 0 192 0;
#X connect 126 1 106 0;
#X connect 126 2 107 0;
#X connect 126 3 108 0;
#X connect 126 4 193 0;
#X connect 126 5 127 0;
#X connect 126 6 128 0;
#X connect 126 7 129 0;
#X connect 130 0 127 0;
#X connect 131 0 128 0;
#X connect 132 0 129 0;
#X connect 133 0 126 0;
#X connect 135 0 217 0;
#X connect 135 0 218 0;
#X connect 136 0 138 0;
#X connect 137 0 118 0;
#X connect 140 0 192 0;
#X connect 140 0 193 0;
#X connect 142 0 143 1;
#X connect 143 0 148 0;
#X connect 144 0 69 0;
#X connect 145 0 69 0;
#X connect 146 0 69 0;
#X connect 147 0 65 0;
#X connect 148 0 225 0;
#X connect 149 0 60 0;
#X connect 149 0 151 0;
#X connect 150 0 143 0;
#X connect 151 0 143 0;
#X connect 152 0 157 0;
#X connect 153 0 154 1;
#X connect 154 0 156 0;
#X connect 155 0 66 0;
#X connect 156 0 234 0;
#X connect 157 0 154 0;
#X connect 158 0 154 0;
#X connect 159 0 152 0;
#X connect 159 0 158 0;
#X connect 160 0 165 0;
#X connect 161 0 162 1;
#X connect 162 0 164 0;
#X connect 163 0 67 0;
#X connect 164 0 163 0;
#X connect 165 0 162 0;
#X connect 166 0 162 0;
#X connect 167 0 160 0;
#X connect 167 0 166 0;
#X connect 168 0 172 0;
#X connect 169 0 168 0;
#X connect 170 0 171 1;
#X connect 171 0 169 0;
#X connect 172 0 191 0;
#X connect 185 0 171 0;
#X connect 186 0 232 0;
#X connect 187 0 186 0;
#X connect 188 0 189 1;
#X connect 189 0 187 0;
#X connect 190 0 189 0;
#X connect 191 0 23 0;
#X connect 194 0 24 0;
#X connect 194 0 24 1;
#X connect 195 0 196 0;
#X connect 196 0 199 1;
#X connect 197 0 200 0;
#X connect 197 1 198 0;
#X connect 198 0 195 0;
#X connect 199 0 194 0;
#X connect 200 0 195 0;
#X connect 201 0 199 0;
#X connect 202 0 119 0;
#X connect 203 0 3 0;
#X connect 204 0 4 0;
#X connect 205 0 5 0;
#X connect 206 0 6 0;
#X connect 207 0 7 0;
#X connect 208 0 8 0;
#X connect 209 0 211 0;
#X connect 210 0 209 0;
#X connect 211 0 194 1;
#X connect 212 0 35 0;
#X connect 213 0 38 0;
#X connect 214 0 217 1;
#X connect 215 0 218 1;
#X connect 216 0 219 0;
#X connect 216 0 215 0;
#X connect 217 0 24 0;
#X connect 218 0 24 1;
#X connect 219 0 222 0;
#X connect 220 0 221 0;
#X connect 221 0 223 0;
#X connect 222 0 223 0;
#X connect 223 0 216 0;
#X connect 223 0 220 0;
#X connect 223 0 214 0;
#X connect 224 0 23 1;
#X connect 225 0 147 0;
#X connect 226 0 37 0;
#X connect 226 0 125 0;
#X connect 227 0 211 0;
#X connect 228 0 227 0;
#X connect 229 0 211 0;
#X connect 230 0 243 0;
#X connect 231 0 244 0;
#X connect 232 0 191 0;
#X connect 233 0 2 0;
#X connect 234 0 155 0;
#X connect 235 0 236 0;
#X connect 236 0 245 0;
#X connect 236 1 190 0;
#X connect 237 0 238 0;
#X connect 238 0 246 0;
#X connect 238 1 185 0;
#X connect 239 0 73 0;
#X connect 240 0 74 0;
#X connect 241 0 230 0;
#X connect 242 0 231 0;
#X connect 243 0 237 0;
#X connect 244 0 235 0;
